<svg width="14" height="14" viewBox="0 0 14 14" fill="none" xmlns="http://www.w3.org/2000/svg">
<path d="M11.6806 4.49941L8.62182 1.44062C8.61744 1.43624 8.61269 1.4324 8.60815 1.42823C8.60225 1.42281 8.5965 1.4172 8.59031 1.4121C8.5862 1.40874 8.58179 1.4058 8.57757 1.40257C8.57042 1.3971 8.56334 1.39154 8.55586 1.38649C8.55247 1.38422 8.54886 1.38233 8.54545 1.38016C8.53677 1.37469 8.52809 1.36924 8.51901 1.36436C8.51655 1.36305 8.51399 1.36203 8.51153 1.36078C8.50128 1.35549 8.49092 1.35042 8.48021 1.34596C8.47856 1.34526 8.47679 1.34476 8.47511 1.34409C8.4636 1.33947 8.45193 1.33514 8.43997 1.33151C8.43823 1.33098 8.43645 1.33066 8.43471 1.33015C8.42285 1.3267 8.41087 1.32353 8.39858 1.32107C8.39468 1.3203 8.39065 1.31995 8.38672 1.31928C8.37658 1.31752 8.36648 1.31573 8.35615 1.31472C8.34163 1.31324 8.32704 1.3125 8.31244 1.3125H3.06201C2.83003 1.31277 2.60762 1.40504 2.44359 1.56907C2.27955 1.73311 2.18728 1.95552 2.18701 2.1875V11.8125C2.18728 12.0445 2.27955 12.2669 2.44359 12.4309C2.60762 12.595 2.83003 12.6872 3.06201 12.6875H10.9374C11.1694 12.6872 11.3918 12.595 11.5559 12.4309C11.7199 12.2669 11.8122 12.0445 11.8124 11.8125V4.82097C11.8125 4.81811 11.8129 4.81536 11.8129 4.8125C11.8129 4.75412 11.8012 4.69632 11.7785 4.64253C11.7558 4.58875 11.7225 4.54008 11.6806 4.49941ZM8.31244 4.8125V2.36871L10.7562 4.8125H8.31244Z" fill="#40434E"/>
</svg>
