<svg width="24" height="24" viewBox="0 0 24 24" fill="none" xmlns="http://www.w3.org/2000/svg">
<path d="M23.1991 17.0385C23.1984 17.0344 23.1976 17.0302 23.1968 17.0261L21.664 9.11148C21.6628 9.10553 21.661 9.09995 21.6597 9.09404C21.4225 7.79898 20.7392 6.6279 19.7284 5.78422C18.7176 4.94054 17.4433 4.47757 16.1267 4.47571H16.1245L7.8754 4.50006C6.55203 4.49743 5.27029 4.9625 4.25652 5.81315C3.24276 6.66379 2.56217 7.84529 2.33495 9.14901C2.33376 9.15579 2.33266 9.16266 2.33165 9.16943L0.804097 17.0256C0.803273 17.0299 0.802494 17.0342 0.801716 17.0385C0.677153 17.7453 0.781133 18.4734 1.09856 19.1171C1.41598 19.7608 1.93032 20.2865 2.56689 20.618C3.20346 20.9494 3.92911 21.0694 4.63848 20.9603C5.34784 20.8513 6.00399 20.519 6.51163 20.0117C6.52523 19.9981 6.53823 19.9841 6.55063 19.9697L10.369 15.7487L13.6361 15.7356L17.4491 19.9683C17.4618 19.9832 17.4752 19.9976 17.4892 20.0117C17.9968 20.5191 18.653 20.8514 19.3624 20.9605C20.0718 21.0696 20.7975 20.9497 21.4341 20.6182C22.0707 20.2867 22.585 19.7609 22.9024 19.1172C23.2198 18.4735 23.3238 17.7453 23.1991 17.0385V17.0385ZM9.74999 10.8751H8.99999V11.6251C8.99999 11.824 8.92097 12.0147 8.78032 12.1554C8.63967 12.296 8.4489 12.3751 8.24999 12.3751C8.05108 12.3751 7.86031 12.296 7.71966 12.1554C7.57901 12.0147 7.49999 11.824 7.49999 11.6251V10.8751H6.74999C6.55108 10.8751 6.36031 10.796 6.21966 10.6554C6.07901 10.5147 5.99999 10.324 5.99999 10.1251C5.99999 9.92615 6.07901 9.73538 6.21966 9.59473C6.36031 9.45408 6.55108 9.37506 6.74999 9.37506H7.49999V8.62506C7.49999 8.42615 7.57901 8.23538 7.71966 8.09473C7.86031 7.95408 8.05108 7.87506 8.24999 7.87506C8.4489 7.87506 8.63967 7.95408 8.78032 8.09473C8.92097 8.23538 8.99999 8.42615 8.99999 8.62506V9.37506H9.74999C9.9489 9.37506 10.1397 9.45408 10.2803 9.59473C10.421 9.73538 10.5 9.92615 10.5 10.1251C10.5 10.324 10.421 10.5147 10.2803 10.6554C10.1397 10.796 9.9489 10.8751 9.74999 10.8751ZM13.5 10.1251C13.5 9.92615 13.579 9.73538 13.7197 9.59473C13.8603 9.45408 14.0511 9.37506 14.25 9.37506H17.25C17.4489 9.37506 17.6397 9.45408 17.7803 9.59473C17.921 9.73538 18 9.92615 18 10.1251C18 10.324 17.921 10.5147 17.7803 10.6554C17.6397 10.796 17.4489 10.8751 17.25 10.8751H14.25C14.0511 10.8751 13.8603 10.796 13.7197 10.6554C13.579 10.5147 13.5 10.324 13.5 10.1251ZM20.201 19.4711C19.9077 19.5226 19.6063 19.5036 19.3217 19.4157C19.0372 19.3277 18.7776 19.1734 18.5645 18.9654L15.6478 15.7276L16.1267 15.7257C17.083 15.7251 18.0234 15.4808 18.859 15.0158C19.6946 14.5507 20.3979 13.8803 20.9024 13.0679L21.7229 17.3047C21.8071 17.7936 21.6942 18.296 21.409 18.702C21.1238 19.1079 20.6895 19.3845 20.201 19.4711Z" fill="white"/>
</svg>
