<svg width="32" height="32" viewBox="0 0 32 32" fill="none" xmlns="http://www.w3.org/2000/svg">
<path d="M29.0499 18.3998L27.4954 16.3272C27.4985 16.2181 27.5 16.1088 27.5 16.0001C27.5 15.8913 27.4985 15.782 27.4954 15.6727L29.0492 13.6002C29.2393 13.3467 29.3665 13.0516 29.4204 12.7394C29.4743 12.4271 29.4533 12.1065 29.3593 11.8039C29.1125 11.017 28.7966 10.2533 28.4152 9.52209C28.2678 9.24115 28.0558 8.99922 27.7966 8.81619C27.5375 8.63316 27.2386 8.51427 26.9246 8.46929L24.3599 8.10296C24.2849 8.02361 24.2089 7.9454 24.1318 7.86833C24.0549 7.79143 23.9767 7.71534 23.897 7.64006L23.5303 5.07573C23.4854 4.76208 23.3667 4.46356 23.184 4.20468C23.0013 3.9458 22.7598 3.73393 22.4793 3.58647C21.7484 3.2044 20.9851 2.88787 20.1983 2.64061C19.8954 2.54621 19.5744 2.52504 19.2618 2.57885C18.9491 2.63265 18.6537 2.7599 18.3998 2.95012L16.3273 4.50457C16.1088 4.49853 15.8912 4.49853 15.6727 4.50457L13.6001 2.95055C13.3465 2.76062 13.0515 2.63351 12.7392 2.57965C12.427 2.5258 12.1064 2.54673 11.8038 2.64074C11.0169 2.8874 10.2534 3.20334 9.52228 3.58483C9.2413 3.73219 8.99931 3.94416 8.81624 4.20331C8.63317 4.46245 8.51425 4.76135 8.46925 5.07543L8.10291 7.64013C8.02338 7.71532 7.94522 7.79135 7.86841 7.86822C7.79139 7.94518 7.71527 8.02343 7.64008 8.10296L5.07569 8.46965C4.76206 8.51463 4.46356 8.63335 4.2047 8.81605C3.94584 8.99875 3.734 9.24023 3.58656 9.52068C3.20448 10.2516 2.88793 11.0149 2.64063 11.8017C2.54621 12.1046 2.52504 12.4255 2.57884 12.7382C2.63265 13.0508 2.7599 13.3463 2.95014 13.6002L4.50459 15.6728C4.50153 15.7819 4.50001 15.8912 4.50001 15.9999C4.50001 16.1086 4.50153 16.218 4.50465 16.3273L2.95081 18.3998C2.76076 18.6533 2.63356 18.9483 2.57966 19.2606C2.52576 19.5729 2.5467 19.8934 2.64076 20.196C2.88749 20.983 3.20342 21.7466 3.58485 22.4779C3.73224 22.7588 3.94423 23.0008 4.20337 23.1838C4.46251 23.3668 4.76139 23.4857 5.07545 23.5307L7.64014 23.897C7.71509 23.9764 7.7911 24.0546 7.86817 24.1317C7.94508 24.2086 8.02334 24.2846 8.10297 24.3599L8.46967 26.9243C8.51464 27.2379 8.63335 27.5364 8.81605 27.7953C8.99876 28.0542 9.24024 28.2661 9.5207 28.4135C10.2516 28.7956 11.0149 29.1121 11.8017 29.3594C11.9944 29.4198 12.1951 29.4505 12.397 29.4504C12.8308 29.4504 13.253 29.3099 13.6002 29.0499L15.6727 27.4954C15.8912 27.5016 16.1088 27.5015 16.3273 27.4954L18.3999 29.0494C18.6535 29.2394 18.9486 29.3665 19.2608 29.4203C19.573 29.4742 19.8936 29.4533 20.1962 29.3593C20.9831 29.1126 21.7466 28.7967 22.4777 28.4152C22.7587 28.2678 23.0007 28.0558 23.1838 27.7967C23.3668 27.5375 23.4858 27.2386 23.5308 26.9246L23.8971 24.3599C23.9766 24.2847 24.0548 24.2086 24.1316 24.1318C24.2086 24.0548 24.2847 23.9766 24.3599 23.897L26.9243 23.5303C27.238 23.4854 27.5365 23.3666 27.7953 23.1839C28.0542 23.0012 28.266 22.7598 28.4135 22.4793C28.7956 21.7484 29.1121 20.9851 29.3594 20.1983C29.4538 19.8954 29.475 19.5745 29.4212 19.2618C29.3674 18.9491 29.2401 18.6537 29.0499 18.3998ZM21.5 16C21.5 17.0878 21.1774 18.1512 20.5731 19.0556C19.9687 19.9601 19.1098 20.665 18.1048 21.0813C17.0998 21.4976 15.9939 21.6065 14.927 21.3943C13.8601 21.1821 12.8801 20.6583 12.1109 19.8891C11.3417 19.1199 10.8179 18.1399 10.6057 17.073C10.3935 16.0061 10.5024 14.9002 10.9187 13.8952C11.335 12.8902 12.0399 12.0313 12.9444 11.4269C13.8488 10.8226 14.9122 10.5 16 10.5C17.4582 10.5016 18.8562 11.0816 19.8873 12.1127C20.9184 13.1438 21.4984 14.5418 21.5 16Z" fill="#0D83EF"/>
</svg>
