<svg width="24" height="24" viewBox="0 0 24 24" fill="none" xmlns="http://www.w3.org/2000/svg">
<path d="M11.9995 1.49973C9.81227 1.50232 7.71536 2.37235 6.16875 3.91896C4.62213 5.46557 3.75211 7.56249 3.74951 9.74973C3.74951 16.8088 11.2495 22.1408 11.5688 22.3642C11.6951 22.4524 11.8455 22.4997 11.9995 22.4997C12.1536 22.4997 12.3039 22.4524 12.4302 22.3642C12.7495 22.1408 20.2495 16.8088 20.2495 9.74973C20.2469 7.56249 19.3769 5.46557 17.8303 3.91896C16.2837 2.37235 14.1868 1.50232 11.9995 1.49973ZM12.0001 6.75C12.5934 6.75 13.1734 6.92594 13.6668 7.25559C14.1601 7.58523 14.5446 8.05377 14.7717 8.60195C14.9988 9.15013 15.0582 9.75333 14.9424 10.3353C14.8267 10.9172 14.5409 11.4518 14.1214 11.8713C13.7018 12.2909 13.1673 12.5766 12.5853 12.6924C12.0034 12.8081 11.4002 12.7487 10.852 12.5216C10.3038 12.2946 9.8353 11.9101 9.50565 11.4167C9.17601 10.9234 9.00006 10.3433 9.00006 9.75C9.00005 9.35603 9.07764 8.96592 9.2284 8.60193C9.37916 8.23795 9.60014 7.90723 9.87872 7.62865C10.1573 7.35007 10.488 7.1291 10.852 6.97834C11.216 6.82758 11.6061 6.74999 12.0001 6.75Z" fill="#0D83EF"/>
</svg>
