<svg width="440" height="80" viewBox="0 0 440 80" fill="none" xmlns="http://www.w3.org/2000/svg">
<path d="M111.445 28.5783V40.4982H121.697C124.991 40.4982 127.235 39.9012 128.429 38.7071C129.5 37.6366 130.035 36.1543 130.035 34.2603C130.035 32.3663 129.335 30.8841 127.935 29.8136C126.782 28.9901 124.929 28.5783 122.377 28.5783H111.445ZM100.081 19.9318H123.241C126.7 19.9318 129.541 20.1789 131.764 20.673C134.029 21.1671 136.026 22.217 137.755 23.8228C140.431 26.3344 141.77 29.7724 141.77 34.1368C141.77 38.4189 140.596 41.8363 138.249 44.3891C136.479 46.3243 134.379 47.5595 131.95 48.0947C129.52 48.63 126.371 48.8976 122.5 48.8976H111.445V63.1644H100.081V19.9318Z" fill="#40434E"/>
<path d="M147.286 26.7873V19.4995H158.156V26.7873H147.286ZM147.286 31.7899H158.156V63.1644H147.286V31.7899Z" fill="#40434E"/>
<path d="M202.423 42.9068H191.986C191.862 41.0952 191.08 39.7365 189.639 38.8306C188.445 38.0483 186.736 37.6572 184.513 37.6572C181.672 37.6572 179.51 38.5012 178.028 40.1894C176.463 41.9598 175.681 44.492 175.681 47.7859C175.681 51.0387 176.525 53.5091 178.213 55.1972C179.613 56.5971 181.734 57.2971 184.575 57.2971C186.922 57.2971 188.63 56.8854 189.701 56.0619C191.224 54.9914 192.007 53.4268 192.048 51.3681H202.547V51.5534C202.547 54.8884 201.435 57.75 199.212 60.1381C197.524 61.9086 195.465 63.0409 193.036 63.5349C190.607 64.0702 187.642 64.3378 184.142 64.3378C182.001 64.3378 180.169 64.2555 178.646 64.0908C177.163 63.9673 175.455 63.5555 173.519 62.8556C171.584 62.1556 169.978 61.1674 168.702 59.8911C165.861 57.0501 164.441 53.0768 164.441 47.9712C164.441 42.8245 165.841 38.7689 168.64 35.8044C171.852 32.3458 176.916 30.6165 183.833 30.6165C189.433 30.6165 193.736 31.5017 196.741 33.2722C200.529 35.4132 202.423 38.6248 202.423 42.9068Z" fill="#40434E"/>
<path d="M204.997 38.4601V31.7899H211.667V22.464H222.537V31.7899H229.825V38.4601H222.537V52.171C222.537 53.9826 222.825 55.1767 223.401 55.7531C224.101 56.453 225.213 56.803 226.736 56.803C227.972 56.803 229.042 56.6383 229.948 56.3089V63.1026C227.766 63.7614 225.295 64.0908 222.537 64.0908C218.543 64.0908 215.681 63.2879 213.952 61.6821C212.429 60.2822 211.667 58.0176 211.667 54.8884V38.4601H204.997Z" fill="#40434E"/>
<path d="M260.734 40.0041C259.17 38.4395 256.946 37.6572 254.064 37.6572C251.182 37.6572 248.959 38.4395 247.394 40.0041C245.665 41.7334 244.8 44.2244 244.8 47.4771C244.8 50.7299 245.665 53.2209 247.394 54.9502C248.959 56.5148 251.182 57.2971 254.064 57.2971C256.946 57.2971 259.17 56.5148 260.734 54.9502C262.464 53.2209 263.328 50.7299 263.328 47.4771C263.328 44.2244 262.464 41.7334 260.734 40.0041ZM269.134 34.7544C272.757 37.6778 274.569 41.9187 274.569 47.4771C274.569 53.0356 272.757 57.2765 269.134 60.1999C265.716 62.9585 260.693 64.3378 254.064 64.3378C247.435 64.3378 242.412 62.9585 238.995 60.1999C235.371 57.2765 233.56 53.0356 233.56 47.4771C233.56 41.9187 235.371 37.6778 238.995 34.7544C242.494 31.9958 247.518 30.6165 254.064 30.6165C260.611 30.6165 265.634 31.9958 269.134 34.7544Z" fill="#40434E"/>
<path d="M286.712 28.5783H271.643V19.9318H313.146V28.5783H298.076V63.1644H286.712V28.5783Z" fill="#0D83EF"/>
<path d="M336.097 49.2064V48.7124C335.521 49.2064 334.862 49.5564 334.121 49.7623C333.421 49.927 332.206 50.0917 330.477 50.2564L328.192 50.5034C326.092 50.7093 324.63 51.0799 323.807 51.6151C322.818 52.3974 322.324 53.2827 322.324 54.2708C322.324 55.3825 322.757 56.2678 323.621 56.9265C324.445 57.5853 325.824 57.9147 327.759 57.9147C330.394 57.9147 332.432 57.1942 333.874 55.7531C335.356 54.2708 336.097 52.0886 336.097 49.2064ZM323.251 41.9187H312.257C312.257 39.0365 313.266 36.5867 315.284 34.5691C316.889 33.0045 318.825 31.9546 321.089 31.4193C323.395 30.8841 326.215 30.6165 329.55 30.6165C336.838 30.6165 341.8 31.9958 344.435 34.7544C345.217 35.5779 345.814 36.5455 346.226 37.6572C346.679 38.7689 346.926 39.6953 346.967 40.4364C347.049 41.1775 347.09 42.1451 347.09 43.3392V57.2971C347.09 58.8205 347.255 60.0763 347.584 61.0645C347.996 61.7645 348.573 62.1762 349.314 62.2997V63.1644H337.456L336.776 60.0763H336.529C335.335 61.5998 333.709 62.7115 331.65 63.4114C329.756 64.029 327.265 64.3378 324.177 64.3378C319.607 64.3378 316.354 63.6791 314.419 62.3615C311.99 60.6322 310.775 58.1412 310.775 54.8884C310.775 52.2945 311.557 50.2358 313.122 48.7124C314.028 47.8477 315.284 47.1477 316.889 46.6125C318.495 46.0772 319.73 45.7478 320.595 45.6243C321.501 45.5008 322.839 45.3567 324.609 45.192L329.55 44.7597C330.827 44.6361 331.712 44.5538 332.206 44.5126C332.741 44.4714 333.318 44.3685 333.935 44.2038C334.553 43.998 335.006 43.7303 335.294 43.4009C335.788 42.9068 336.035 42.2275 336.035 41.3628C336.035 40.0453 335.376 39.0159 334.059 38.2748C333.071 37.6984 331.63 37.4101 329.736 37.4101C327.677 37.4101 326.112 37.7807 325.042 38.5218C323.889 39.4277 323.292 40.5599 323.251 41.9187Z" fill="#0D83EF"/>
<path d="M374.636 37.7189C372.166 37.7189 370.148 38.5218 368.584 40.1276C366.813 42.104 365.928 44.595 365.928 47.6007C365.928 50.7299 366.751 53.1385 368.398 54.8267C370.004 56.4325 372.145 57.2353 374.821 57.2353C377.539 57.2353 379.618 56.3913 381.059 54.7032C382.583 52.9739 383.344 50.5446 383.344 47.4154C383.344 44.4509 382.583 42.0834 381.059 40.3129C379.454 38.5836 377.312 37.7189 374.636 37.7189ZM355.367 31.7899H365.743V35.7426H365.928C367.04 34.2603 368.398 33.1075 370.004 32.284C372.022 31.2958 374.616 30.8017 377.786 30.8017C383.015 30.8017 387.091 32.1193 390.015 34.7544C393.061 37.6778 394.585 41.8363 394.585 47.2301C394.585 52.8709 393.061 57.1736 390.015 60.1381C388.326 61.8262 386.474 62.9173 384.456 63.4114C382.48 63.9055 380.215 64.1525 377.662 64.1525C374.451 64.1525 372.042 63.8026 370.436 63.1026C368.789 62.4438 367.39 61.3527 366.237 59.8293V74.5901H355.367V31.7899Z" fill="#0D83EF"/>
<path d="M420.052 37.7189C417.582 37.7189 415.564 38.5218 414 40.1276C412.229 42.104 411.344 44.595 411.344 47.6007C411.344 50.7299 412.167 53.1385 413.814 54.8267C415.42 56.4325 417.561 57.2353 420.237 57.2353C422.955 57.2353 425.034 56.3913 426.475 54.7032C427.999 52.9739 428.76 50.5446 428.76 47.4154C428.76 44.4509 427.999 42.0834 426.475 40.3129C424.869 38.5836 422.728 37.7189 420.052 37.7189ZM400.783 31.7899H411.159V35.7426H411.344C412.455 34.2603 413.814 33.1075 415.42 32.284C417.438 31.2958 420.031 30.8017 423.202 30.8017C428.431 30.8017 432.507 32.1193 435.43 34.7544C438.477 37.6778 440.001 41.8363 440.001 47.2301C440.001 52.8709 438.477 57.1736 435.43 60.1381C433.742 61.8262 431.89 62.9173 429.872 63.4114C427.896 63.9055 425.631 64.1525 423.078 64.1525C419.867 64.1525 417.458 63.8026 415.852 63.1026C414.205 62.4438 412.805 61.3527 411.653 59.8293V74.5901H400.783V31.7899Z" fill="#0D83EF"/>
<path fill-rule="evenodd" clip-rule="evenodd" d="M27.3483 4.84625C29.047 3.14755 31.351 2.19324 33.7533 2.19324C36.1556 2.19324 38.4595 3.14755 40.1582 4.84625C41.8569 6.54495 42.8112 8.84887 42.8112 11.2512V32.5034C42.8112 34.0538 41.5544 35.3107 40.0039 35.3107C38.4535 35.3107 37.1966 34.0538 37.1966 32.5034V11.2512C37.1966 10.338 36.8338 9.46214 36.1881 8.81639C35.5423 8.17063 34.6665 7.80785 33.7533 7.80785C32.84 7.80785 31.9642 8.17063 31.3185 8.81639C30.6727 9.46214 30.3099 10.338 30.3099 11.2512V49.1508C30.3099 50.4214 29.4565 51.5336 28.2292 51.8624C27.0019 52.1913 25.7067 51.6548 25.0714 50.5544L18.2172 38.6825C17.9913 38.2905 17.6904 37.9469 17.3316 37.6713C16.9729 37.3956 16.5633 37.1934 16.1263 37.0761C15.6894 36.9588 15.2336 36.9288 14.785 36.9877C14.3364 37.0467 13.9039 37.1935 13.5121 37.4197C13.1203 37.6459 12.7769 37.9471 12.5015 38.3061C12.2262 38.6651 12.0243 39.0749 11.9074 39.5119C11.7904 39.949 11.7608 40.4048 11.8201 40.8533C11.8795 41.3018 12.0266 41.7343 12.2532 42.1259C12.2915 42.1922 12.3271 42.26 12.3599 42.3292C17.4584 53.0861 21.3754 59.9139 25.5402 64.0905C29.4941 68.0555 33.7462 69.7002 40.0039 69.7002C42.9187 69.7002 45.8048 69.1261 48.4977 68.0107C51.1905 66.8953 53.6373 65.2604 55.6984 63.1994C57.7594 61.1384 59.3943 58.6916 60.5097 55.9987C61.6251 53.3059 62.1992 50.4197 62.1992 47.505V35.0037C62.1992 34.0904 61.8364 33.2146 61.1907 32.5688C60.5449 31.9231 59.6691 31.5603 58.7559 31.5603C57.8426 31.5603 56.9668 31.9231 56.3211 32.5688C55.6753 33.2146 55.3125 34.0904 55.3125 35.0037C55.3125 36.5541 54.0557 37.811 52.5052 37.811C50.9548 37.811 49.6979 36.5541 49.6979 35.0037C49.6979 32.6013 50.6522 30.2974 52.3509 28.5987C54.0496 26.9 56.3535 25.9457 58.7559 25.9457C61.1582 25.9457 63.4621 26.9 65.1608 28.5987C66.8595 30.2974 67.8138 32.6013 67.8138 35.0037V47.505C67.8138 51.157 67.0945 54.7733 65.6969 58.1473C64.2993 61.5214 62.2509 64.5871 59.6685 67.1695C57.0861 69.7519 54.0204 71.8004 50.6463 73.1979C47.2723 74.5955 43.656 75.3148 40.0039 75.3148C32.4531 75.3148 26.7042 73.2092 21.5645 68.055C16.6502 63.1269 12.3917 55.4972 7.33112 44.8284C6.77028 43.8271 6.40462 42.7281 6.25402 41.5897C6.09793 40.4098 6.17589 39.2107 6.48344 38.061C6.791 36.9113 7.32211 35.8335 8.04642 34.8891C8.77074 33.9447 9.67406 33.1524 10.7048 32.5573C11.7355 31.9622 12.8733 31.5761 14.0533 31.421C15.2333 31.2659 16.4323 31.3449 17.5818 31.6534C18.7312 31.9619 19.8086 32.4939 20.7524 33.219C21.6959 33.944 22.4874 34.8477 23.0815 35.8786C23.0814 35.8783 23.0817 35.8788 23.0815 35.8786L24.6953 38.6738V11.2512C24.6953 8.84887 25.6496 6.54495 27.3483 4.84625Z" fill="#0D83EF"/>
<path fill-rule="evenodd" clip-rule="evenodd" d="M39.8493 24.8483C41.548 23.1496 43.8519 22.1953 46.2542 22.1953C48.6566 22.1953 50.9605 23.1496 52.6592 24.8483C54.3579 26.547 55.3122 28.8509 55.3122 31.2533V35.0037C55.3122 36.5541 54.0553 37.811 52.5049 37.811C50.9545 37.811 49.6976 36.5541 49.6976 35.0037V31.2533C49.6976 30.34 49.3348 29.4642 48.6891 28.8185C48.0433 28.1727 47.1675 27.8099 46.2542 27.8099C45.341 27.8099 44.4652 28.1727 43.8194 28.8185C43.1737 29.4642 42.8109 30.34 42.8109 31.2533V32.5034C42.8109 34.0538 41.554 35.3107 40.0036 35.3107C38.4532 35.3107 37.1963 34.0538 37.1963 32.5034V31.2533C37.1963 28.8509 38.1506 26.547 39.8493 24.8483Z" fill="#0D83EF"/>
</svg>
