<svg width="24" height="24" viewBox="0 0 24 24" fill="none" xmlns="http://www.w3.org/2000/svg">
<path d="M8.81807 17.3034C7.75741 20.4854 3.51477 20.4854 3.51477 20.4854C3.51477 20.4854 3.51477 16.2428 6.69675 15.1821" stroke="white" stroke-width="2" stroke-linecap="round" stroke-linejoin="round"/>
<path d="M18.3639 9.87864L12 16.2426L7.75732 12L14.1213 5.636C16.531 3.22623 18.9408 3.24974 19.9685 3.40307C20.1267 3.42666 20.2732 3.50045 20.3863 3.61358C20.4995 3.7267 20.5733 3.87318 20.5969 4.03141C20.7502 5.05911 20.7737 7.46887 18.3639 9.87864Z" stroke="white" stroke-width="2" stroke-linecap="round" stroke-linejoin="round"/>
<path d="M17.3033 10.9395V16.9928C17.3033 17.0912 17.2839 17.1888 17.2462 17.2798C17.2085 17.3708 17.1533 17.4534 17.0836 17.5231L14.0516 20.5551C13.9556 20.6511 13.8354 20.7193 13.7037 20.7523C13.572 20.7853 13.4338 20.782 13.3039 20.7426C13.174 20.7033 13.0572 20.6294 12.9659 20.5289C12.8747 20.4284 12.8124 20.305 12.7858 20.1719L12 16.2428" stroke="white" stroke-width="2" stroke-linecap="round" stroke-linejoin="round"/>
<path d="M13.0607 6.69678H7.00738C6.90889 6.69678 6.81136 6.71618 6.72037 6.75387C6.62938 6.79156 6.5467 6.8468 6.47705 6.91645L3.44501 9.94849C3.34902 10.0445 3.28088 10.1647 3.24787 10.2964C3.21485 10.4281 3.21818 10.5662 3.25752 10.6962C3.29686 10.8261 3.37072 10.9429 3.47124 11.0341C3.57175 11.1254 3.69514 11.1876 3.82826 11.2143L7.75738 12.0001" stroke="white" stroke-width="2" stroke-linecap="round" stroke-linejoin="round"/>
</svg>
