<svg width="680" height="81" viewBox="0 0 680 81" fill="none" xmlns="http://www.w3.org/2000/svg">
<path d="M33.9578 80.0068C28.1683 80.0068 22.787 79.0504 17.8139 77.1376C12.9151 75.2248 8.86986 72.2452 5.67819 68.1989C2.56075 64.1526 0.668023 59.0027 0 52.7493H20.2634C20.7829 54.8093 21.7478 56.5014 23.1581 57.8256C24.5684 59.0763 26.3127 59.9959 28.391 60.5845C30.5435 61.173 32.8444 61.4673 35.2939 61.4673C36.7784 61.4673 38.3 61.3202 39.8587 61.0259C41.4174 60.7316 42.7163 60.1798 43.7555 59.3706C44.8689 58.5613 45.4255 57.3842 45.4255 55.8392C45.4255 54.7357 45.0915 53.8529 44.4235 53.1907C43.8297 52.455 42.939 51.8665 41.7514 51.4251C40.638 50.9101 39.2278 50.4687 37.5206 50.1008C36.8526 49.9537 36.1474 49.8065 35.4052 49.6594C34.7372 49.5123 34.0692 49.3651 33.4011 49.218C32.7331 49.0708 32.028 48.9237 31.2857 48.7766C27.5003 47.9673 23.8633 47.0477 20.3747 46.0177C16.8861 44.9142 13.8058 43.4796 11.1337 41.7139C8.46162 39.9482 6.34622 37.594 4.7875 34.6512C3.22878 31.7084 2.44942 27.9932 2.44942 23.5055C2.44942 19.3856 3.19166 15.9278 4.67616 13.1321C6.16065 10.2629 8.12761 7.98229 10.577 6.29019C13.0264 4.52452 15.6985 3.20027 18.5933 2.31744C21.4881 1.4346 24.3457 0.846049 27.1663 0.551771C29.9868 0.183924 32.5104 0 34.7372 0C40.2298 0 45.0544 1.02997 49.211 3.08992C53.3676 5.07629 56.7077 8.01907 59.2313 11.9183C61.8292 15.8174 63.3879 20.5259 63.9075 26.0436H44.4235C44.2008 24.4251 43.5328 23.064 42.4194 21.9605C41.3061 20.7834 39.8587 19.9005 38.0773 19.312C36.3701 18.6499 34.3661 18.3188 32.0651 18.3188C30.729 18.3188 29.4672 18.4292 28.2796 18.6499C27.092 18.8706 26.0529 19.2016 25.1622 19.643C24.3457 20.0845 23.6777 20.6362 23.1581 21.2984C22.6385 21.9605 22.3788 22.733 22.3788 23.6158C22.3788 24.7929 22.8241 25.7861 23.7148 26.5954C24.6797 27.4046 26.0529 28.1035 27.8343 28.6921C29.6899 29.2807 31.9537 29.906 34.6258 30.5681C35.8877 30.8624 37.1124 31.1567 38.3 31.451C39.4876 31.6717 40.6752 31.9292 41.8627 32.2234C45.1286 32.9591 48.1719 33.8052 50.9924 34.7616C53.8872 35.718 56.4108 36.9687 58.5633 38.5136C60.7901 40.0586 62.5343 42.1553 63.7962 44.8038C65.058 47.3787 65.6889 50.6894 65.6889 54.7357C65.6889 59.3706 64.7982 63.3065 63.0168 66.5436C61.2354 69.7071 58.8231 72.282 55.7799 74.2684C52.7367 76.2548 49.3223 77.7262 45.5369 78.6826C41.7514 79.5654 37.8917 80.0068 33.9578 80.0068Z" fill="#40434E" fill-opacity="0.05"/>
<path d="M114.642 80.0068C106.626 80.0068 99.6119 78.3515 93.5997 75.0409C87.5875 71.7302 82.9113 67.0954 79.5712 61.1362C76.3053 55.1035 74.6724 48.1144 74.6724 40.1689C74.6724 32.0027 76.3796 24.9401 79.7939 18.9809C83.2082 12.9482 87.9586 8.27656 94.0451 4.96594C100.131 1.65531 107.183 0 115.199 0C123.141 0 130.118 1.61853 136.13 4.85558C142.143 8.09264 146.856 12.6907 150.27 18.6499C153.685 24.5354 155.392 31.5245 155.392 39.6172C155.392 47.5627 153.685 54.5886 150.27 60.6948C146.93 66.7275 142.18 71.4728 136.019 74.9305C129.933 78.3147 122.807 80.0068 114.642 80.0068ZM115.088 61.1362C119.838 61.1362 123.661 60.0695 126.555 57.936C129.45 55.7289 131.529 53.0068 132.79 49.7698C134.126 46.5327 134.794 43.3324 134.794 40.1689C134.794 37.8147 134.423 35.4237 133.681 32.9959C133.013 30.4945 131.9 28.1771 130.341 26.0436C128.856 23.9101 126.852 22.1812 124.329 20.857C121.805 19.5327 118.688 18.8706 114.976 18.8706C110.3 18.8706 106.515 19.9373 103.62 22.0708C100.725 24.1308 98.6099 26.7793 97.2738 30.0163C95.9378 33.2534 95.2698 36.6008 95.2698 40.0586C95.2698 43.5163 95.9378 46.8638 97.2738 50.1008C98.6841 53.3379 100.837 55.9864 103.731 58.0463C106.7 60.1063 110.486 61.1362 115.088 61.1362Z" fill="#40434E" fill-opacity="0.05"/>
<path d="M165.997 79.124V0.993188H186.149V60.6948H223.892V79.124H165.997Z" fill="#40434E" fill-opacity="0.05"/>
<path d="M233.625 79.124V0.993188H253.777V79.124H233.625Z" fill="#40434E" fill-opacity="0.05"/>
<path d="M268.744 79.124V0.993188H299.585C307.898 0.993188 315.061 2.46458 321.073 5.40735C327.159 8.35013 331.835 12.7275 335.101 18.5395C338.441 24.3515 340.111 31.6349 340.111 40.3896C340.111 48.9237 338.516 56.0599 335.324 61.7984C332.132 67.5368 327.53 71.8774 321.518 74.8202C315.506 77.6894 308.269 79.124 299.807 79.124H268.744ZM288.896 60.6948H300.03C305.003 60.6948 308.9 59.8488 311.72 58.1567C314.615 56.391 316.656 53.9632 317.844 50.8733C319.106 47.7834 319.737 44.2153 319.737 40.1689C319.737 36.2698 319.143 32.7752 317.955 29.6853C316.768 26.5218 314.689 24.0572 311.72 22.2915C308.751 20.4523 304.595 19.5327 299.251 19.5327H288.896V60.6948Z" fill="#40434E" fill-opacity="0.05"/>
<path d="M357.9 81C354.783 81 352.073 80.0436 349.772 78.1308C347.546 76.218 346.432 73.3856 346.432 69.6335C346.432 65.8079 347.583 62.8651 349.884 60.8052C352.259 58.6717 354.968 57.6049 358.011 57.6049C361.055 57.6049 363.69 58.6349 365.916 60.6948C368.143 62.7548 369.256 65.6975 369.256 69.5232C369.256 73.3488 368.143 76.218 365.916 78.1308C363.69 80.0436 361.018 81 357.9 81Z" fill="#40434E" fill-opacity="0.05"/>
<path d="M377.284 79.124L408.904 0.993188H429.39L460.676 79.124H438.965L435.068 68.0886H402.892L398.883 79.124H377.284ZM409.238 50.1008H428.722L419.147 23.2847L409.238 50.1008Z" fill="#40434E" fill-opacity="0.05"/>
<path d="M467.607 79.124V0.993188H500.674C506.835 0.993188 512.253 1.87602 516.929 3.64169C521.606 5.33379 525.28 8.203 527.952 12.2493C530.624 16.2221 531.96 21.703 531.96 28.6921C531.96 35.0926 530.55 40.4264 527.729 44.6935C524.909 48.8869 521.086 52.0136 516.261 54.0736C511.437 56.1335 505.981 57.1635 499.895 57.1635H487.759V79.124H467.607ZM487.759 39.3965H499.895C503.755 39.3965 506.761 38.4768 508.913 36.6376C511.066 34.7984 512.142 32.1866 512.142 28.8025C512.142 25.7861 511.177 23.5054 509.247 21.9605C507.392 20.342 504.237 19.5327 499.784 19.5327H487.759V39.3965Z" fill="#40434E" fill-opacity="0.05"/>
<path d="M542.086 79.124V0.993188H575.153C581.313 0.993188 586.732 1.87602 591.408 3.64169C596.084 5.33379 599.758 8.203 602.43 12.2493C605.102 16.2221 606.438 21.703 606.438 28.6921C606.438 35.0926 605.028 40.4264 602.208 44.6935C599.387 48.8869 595.564 52.0136 590.74 54.0736C585.915 56.1335 580.46 57.1635 574.373 57.1635H562.238V79.124H542.086ZM562.238 39.3965H574.373C578.233 39.3965 581.239 38.4768 583.392 36.6376C585.544 34.7984 586.62 32.1866 586.62 28.8025C586.62 25.7861 585.655 23.5054 583.726 21.9605C581.87 20.342 578.715 19.5327 574.262 19.5327H562.238V39.3965Z" fill="#40434E" fill-opacity="0.05"/>
<path d="M648.269 80.0068C642.479 80.0068 637.098 79.0504 632.125 77.1376C627.226 75.2248 623.181 72.2452 619.989 68.1989C616.872 64.1526 614.979 59.0027 614.311 52.7493H634.574C635.094 54.8093 636.059 56.5014 637.469 57.8256C638.88 59.0763 640.624 59.9959 642.702 60.5845C644.855 61.173 647.156 61.4673 649.605 61.4673C651.089 61.4673 652.611 61.3202 654.17 61.0259C655.729 60.7316 657.027 60.1798 658.067 59.3706C659.18 58.5613 659.737 57.3842 659.737 55.8392C659.737 54.7357 659.403 53.8529 658.735 53.1907C658.141 52.455 657.25 51.8665 656.063 51.4251C654.949 50.9101 653.539 50.4687 651.832 50.1008C651.164 49.9537 650.459 49.8065 649.716 49.6594C649.048 49.5123 648.38 49.3651 647.712 49.218C647.044 49.0708 646.339 48.9237 645.597 48.7766C641.811 47.9673 638.174 47.0477 634.686 46.0177C631.197 44.9142 628.117 43.4796 625.445 41.7139C622.773 39.9482 620.657 37.594 619.099 34.6512C617.54 31.7084 616.761 27.9932 616.761 23.5055C616.761 19.3856 617.503 15.9278 618.987 13.1321C620.472 10.2629 622.439 7.98229 624.888 6.29019C627.338 4.52452 630.01 3.20027 632.904 2.31744C635.799 1.4346 638.657 0.846049 641.477 0.551771C644.298 0.183924 646.822 0 649.048 0C654.541 0 659.366 1.02997 663.522 3.08992C667.679 5.07629 671.019 8.01907 673.542 11.9183C676.14 15.8174 677.699 20.5259 678.219 26.0436H658.735C658.512 24.4251 657.844 23.064 656.731 21.9605C655.617 20.7834 654.17 19.9005 652.388 19.312C650.681 18.6499 648.677 18.3188 646.376 18.3188C645.04 18.3188 643.778 18.4292 642.591 18.6499C641.403 18.8706 640.364 19.2016 639.473 19.643C638.657 20.0845 637.989 20.6362 637.469 21.2984C636.95 21.9605 636.69 22.733 636.69 23.6158C636.69 24.7929 637.135 25.7861 638.026 26.5954C638.991 27.4046 640.364 28.1035 642.145 28.6921C644.001 29.2807 646.265 29.906 648.937 30.5681C650.199 30.8624 651.424 31.1567 652.611 31.451C653.799 31.6717 654.986 31.9292 656.174 32.2234C659.44 32.9591 662.483 33.8052 665.304 34.7616C668.198 35.718 670.722 36.9687 672.874 38.5136C675.101 40.0586 676.845 42.1553 678.107 44.8038C679.369 47.3787 680 50.6894 680 54.7357C680 59.3706 679.109 63.3065 677.328 66.5436C675.547 69.7071 673.134 72.282 670.091 74.2684C667.048 76.2548 663.633 77.7262 659.848 78.6826C656.063 79.5654 652.203 80.0068 648.269 80.0068Z" fill="#40434E" fill-opacity="0.05"/>
</svg>
