<svg width="32" height="32" viewBox="0 0 32 32" fill="none" xmlns="http://www.w3.org/2000/svg">
<path d="M26.4 9.92396C26.1607 10.0383 25.9766 10.243 25.8882 10.493C25.7998 10.7431 25.8144 11.018 25.9287 11.2573C27.1023 13.7062 27.3297 16.5023 26.5671 19.1085C25.8045 21.7148 24.1057 23.9473 21.7971 25.3772C19.4885 26.807 16.7329 27.3334 14.0598 26.8551C11.3867 26.3768 8.98468 24.9276 7.31515 22.7859C5.64562 20.6442 4.82639 17.9611 5.01485 15.2521C5.20331 12.5431 6.38618 9.99931 8.33617 8.10943C10.2862 6.21955 12.8658 5.11691 15.5793 5.01334C18.2929 4.90978 20.949 5.8126 23.0374 7.54836L20.1913 10.3944C18.7741 9.33464 17.008 8.85098 15.2486 9.04078C13.4892 9.23058 11.867 10.0798 10.7084 11.4174C9.54984 12.7551 8.94094 14.4819 9.00424 16.2504C9.06755 18.0189 9.79836 19.6978 11.0496 20.9492L11.0501 20.9498L11.0508 20.9504C12.0539 21.9533 13.3381 22.6277 14.7331 22.8844C16.1281 23.1412 17.5682 22.968 18.8626 22.388C20.157 21.8079 21.2447 20.8483 21.9815 19.6362C22.7183 18.4242 23.0695 17.0169 22.9886 15.6007C22.9812 15.4696 22.948 15.3412 22.8909 15.223C22.8338 15.1047 22.754 14.9988 22.6561 14.9114C22.5581 14.8239 22.4438 14.7566 22.3198 14.7134C22.1959 14.6701 22.0646 14.6516 21.9334 14.6591C21.8023 14.6665 21.674 14.6997 21.5557 14.7568C21.4374 14.8139 21.3315 14.8937 21.2441 14.9916C21.1566 15.0896 21.0894 15.2039 21.0461 15.3279C21.0028 15.4518 20.9843 15.5831 20.9918 15.7143C21.0445 16.6403 20.8386 17.5628 20.3972 18.3786C19.9557 19.1944 19.2961 19.8714 18.4921 20.3339C17.6881 20.7964 16.7713 21.0262 15.8441 20.9976C14.917 20.9691 14.0161 20.6833 13.242 20.1722L16.2357 17.1785L20.9498 12.4645L20.9504 12.4638L28.7071 4.70711C28.8947 4.51956 29 4.26519 29 3.99996C29 3.73474 28.8946 3.48037 28.7071 3.29283C28.5196 3.10529 28.2652 2.99993 28 2.99994C27.7347 2.99994 27.4804 3.10531 27.2928 3.29286L24.4583 6.12733C21.9058 3.9405 18.6054 2.8273 15.2498 3.02133C11.8942 3.21536 8.74416 4.70153 6.46066 7.16799C4.17717 9.63446 2.93773 12.8895 3.00241 16.2501C3.06709 19.6107 4.43088 22.8156 6.80759 25.1924C8.97649 27.3606 11.842 28.6924 14.8978 28.9523C17.9535 29.2123 21.0028 28.3838 23.5068 26.6131C26.0108 24.8425 27.8084 22.2437 28.5818 19.2761C29.3552 16.3084 29.0547 13.1628 27.7334 10.3953C27.6768 10.2768 27.5974 10.1706 27.4997 10.0828C27.4021 9.99495 27.2881 9.92723 27.1643 9.88346C27.0405 9.83969 26.9093 9.82074 26.7781 9.82769C26.647 9.83464 26.5185 9.86736 26.4 9.92396Z" fill="#0D83EF"/>
</svg>
