<svg width="19" height="19" viewBox="0 0 19 19" fill="none" xmlns="http://www.w3.org/2000/svg">
<path d="M16.7601 2.73137C16.6051 2.59754 16.4165 2.50865 16.2146 2.47435C16.0127 2.44005 15.8053 2.46164 15.6148 2.53678L2.63808 7.63478C2.41189 7.72364 2.22056 7.88335 2.09271 8.09002C1.96486 8.29668 1.90737 8.53919 1.92884 8.78126C1.95031 9.02332 2.04959 9.25193 2.21181 9.43287C2.37404 9.61381 2.5905 9.73735 2.82879 9.78501L6.12497 10.4443V14.5613C6.12477 14.7839 6.19064 15.0015 6.31423 15.1867C6.43781 15.3718 6.61355 15.5161 6.8192 15.6013C7.02484 15.6864 7.25114 15.7087 7.46943 15.6652C7.68772 15.6216 7.88819 15.5143 8.04544 15.3568L9.86959 13.5327L12.6382 15.9691C12.842 16.1501 13.1051 16.2502 13.3777 16.2505C13.4962 16.2504 13.614 16.2317 13.7267 16.1952C13.9126 16.1362 14.0798 16.0295 14.2116 15.8857C14.3435 15.742 14.4353 15.5662 14.4779 15.3758L17.1227 3.83523C17.1687 3.63567 17.1593 3.42731 17.0954 3.23274C17.0315 3.03816 16.9155 2.86478 16.7601 2.73137ZM13.3814 15.1245L7.58817 10.0264L15.9304 4.00157L13.3814 15.1245Z" fill="white"/>
</svg>
