<svg width="18" height="19" viewBox="0 0 18 19" fill="none" xmlns="http://www.w3.org/2000/svg">
<path d="M16.26 2.73147C16.105 2.59763 15.9164 2.50875 15.7145 2.47444C15.5126 2.44014 15.3051 2.46173 15.1146 2.53687L2.13795 7.63487C1.91177 7.72373 1.72043 7.88344 1.59259 8.09011C1.46474 8.29677 1.40725 8.53928 1.42872 8.78135C1.45019 9.02342 1.54946 9.25202 1.71169 9.43296C1.87392 9.6139 2.09037 9.73744 2.32867 9.7851L5.62484 10.4444V14.5614C5.62465 14.784 5.69052 15.0016 5.8141 15.1868C5.93769 15.3719 6.11343 15.5162 6.31907 15.6014C6.52472 15.6865 6.75101 15.7088 6.96931 15.6653C7.1876 15.6217 7.38806 15.5144 7.54532 15.3569L9.36946 13.5328L12.1381 15.9692C12.3419 16.1502 12.605 16.2503 12.8776 16.2506C12.9961 16.2505 13.1138 16.2318 13.2266 16.1953C13.4125 16.1363 13.5797 16.0296 13.7115 15.8858C13.8433 15.7421 13.9352 15.5662 13.9778 15.3759L16.6225 3.83532C16.6686 3.63576 16.6591 3.42741 16.5952 3.23283C16.5313 3.03825 16.4154 2.86487 16.26 2.73147ZM12.8812 15.1246L7.08805 10.0265L15.4302 4.00166L12.8812 15.1246Z" fill="#0D83EF"/>
</svg>
